/* XPM */
static char *cfcd9298e970425aebaf7434f6b2f0bcFcWFklQcfAjiFo8m[] = {
/* columns rows colors chars-per-pixel */
"16 16 32 1 ",
"  c #585858",
". c #FFCC42",
"X c #66FF66",
"o c #66CCFF",
"O c #6666FF",
"+ c #8000FF",
"@ c #3D3F3E",
"# c #808080",
"$ c #333335",
"% c #FFFF66",
"& c #66FFCC",
"* c #CCFFFF",
"= c #0080FF",
"- c #CC66FF",
"; c #FF6666",
": c #B4B4B4",
"> c #1F2223",
", c #808000",
"< c #008000",
"1 c #008080",
"2 c #585858",
"3 c #800080",
"4 c #800000",
"5 c #585858",
"6 c #585858",
"7 c #585858",
"8 c #585858",
"9 c #585858",
"0 c #585858",
"q c #585858",
"w c white",
"e c black",
/* pixels */
"                ",
"     eeeeee     ",
"   ee@@@@@$ee   ",
"  e@$$$$$$$$@e  ",
" e@$$>>>>>>$$@e ",
"e$$$>#::::#>$$$e",
"e$$$#::::::#$$$e",
"e$$$@::::::$@$$e",
"ee$$$@@@@@@$$$ee",
"e$e$$$$$$$$$$e$e",
"e$$ee$$$$$@ee$$e",
"e>$>>eeeeee$$>>e",
"e$>$$>>>>>>>>>>e",
" e>>>>$>$>$>$$e ",
"   e$$>>>>>$ee  ",
"    eeeeeeee    "
};
