/* XPM */
static char *a2e794f1943443a9cfcc705623611ec7YaMucZq5jAD1AZoD[] = {
/* columns rows colors chars-per-pixel */
"32 32 203 2 ",
"   c #585858",
".  c #1B0500",
"X  c #1F0B05",
"o  c #260706",
"O  c #32110C",
"+  c #2D1B17",
"@  c #391C18",
"#  c #381C16",
"$  c #3B251E",
"%  c #351F21",
"&  c #2E2020",
"*  c #3C2823",
"=  c #42241C",
"-  c #4A281A",
";  c #542814",
":  c #5E341C",
">  c #60341D",
",  c #452B23",
"<  c #4B2C26",
"1  c #472A27",
"2  c #522D24",
"3  c #572F2D",
"4  c #4A382E",
"5  c #52342B",
"6  c #593827",
"7  c #4F3B30",
"8  c #533432",
"9  c #5D3632",
"0  c #533934",
"q  c #563E36",
"w  c #6A3D26",
"e  c #6B3C2B",
"r  c #633921",
"t  c #633F32",
"y  c #653A36",
"u  c #5E412F",
"i  c #6B412A",
"p  c #72432C",
"a  c #6A453B",
"s  c #764A34",
"d  c #7B4A35",
"f  c #754B39",
"g  c #7D4E3D",
"h  c #7C413B",
"j  c #6E543D",
"k  c #5B4D4C",
"l  c #654543",
"z  c #6A4B43",
"x  c #694D49",
"c  c #724D44",
"v  c #734D4A",
"b  c #7C4F46",
"n  c #67534B",
"m  c #78544A",
"M  c #675552",
"N  c #7F5E55",
"B  c #7C6359",
"V  c #7A6D63",
"C  c #83473B",
"Z  c #82533C",
"A  c #86563A",
"S  c #835442",
"D  c #8C5D49",
"F  c #855747",
"G  c #955549",
"H  c #955C4D",
"J  c #995A49",
"K  c #845E56",
"L  c #8D5E5A",
"P  c #895854",
"I  c #905F56",
"U  c #8D654C",
"Y  c #95634E",
"T  c #9D6C4E",
"R  c #8C655C",
"E  c #8B6A5A",
"W  c #936354",
"Q  c #9C6457",
"!  c #966558",
"~  c #9C705C",
"^  c #A36152",
"/  c #A36B5B",
"(  c #AA6C5D",
")  c #A5665D",
"_  c #A2735B",
"`  c #A9705C",
"'  c #8C6D63",
"]  c #856A61",
"[  c #976A63",
"{  c #9B6D63",
"}  c #976966",
"|  c #8B746F",
" . c #9C7563",
".. c #97756E",
"X. c #9B736C",
"o. c #867470",
"O. c #937570",
"+. c #A26864",
"@. c #A37563",
"#. c #AA7363",
"$. c #AC7A65",
"%. c #A3746B",
"&. c #AA7469",
"*. c #A77A69",
"=. c #A87A69",
"-. c #B67466",
";. c #B37B65",
":. c #B2746A",
">. c #B57C6B",
",. c #BC7B6D",
"<. c #B97B66",
"1. c #A27C72",
"2. c #AA7C71",
"3. c #BB7C72",
"4. c #96857E",
"5. c #AD816B",
"6. c #BD846F",
"7. c #B78267",
"8. c #A68572",
"9. c #AB847B",
"0. c #AE8373",
"q. c #BC8273",
"w. c #B4857C",
"e. c #BD8A7C",
"r. c #B8887D",
"t. c #BE9078",
"y. c #C1806C",
"u. c #C98577",
"i. c #C48A7C",
"p. c #CD8B7C",
"a. c #C58677",
"s. c #D28D7D",
"d. c #D2917F",
"f. c #9B8C87",
"g. c #A28981",
"h. c #BA8E86",
"j. c #AA938D",
"k. c #BB9284",
"l. c #BE9985",
"z. c #BF958B",
"x. c #A59792",
"c. c #B1A79E",
"v. c #B2A9A4",
"b. c #C28F84",
"n. c #C39685",
"m. c #CB9383",
"M. c #C29A86",
"N. c #CA9A83",
"B. c #CC968B",
"V. c #C5998A",
"C. c #CB9B8C",
"Z. c #C2968D",
"A. c #D79283",
"S. c #D79987",
"D. c #D4958B",
"F. c #D39A8C",
"G. c #DB9C8B",
"H. c #DD9885",
"J. c #C39E95",
"K. c #D39C91",
"L. c #D78D86",
"P. c #E39C8D",
"I. c #DCA38F",
"U. c #D1A18A",
"Y. c #C8A299",
"T. c #D3A494",
"R. c #DCA294",
"E. c #DEAB97",
"W. c #DEA59A",
"Q. c #D5AD9A",
"!. c #DCAD9E",
"~. c #DAB19E",
"^. c #EAA596",
"/. c #E2AC97",
"(. c #E3A599",
"). c #E3AB9D",
"_. c #EBAC9B",
"`. c #E6A397",
"'. c #F1A99D",
"]. c #E2B39D",
"[. c #EAB19D",
"{. c #F1B09E",
"}. c #DCADA3",
"|. c #DFB6A1",
" X c #C3AFB0",
".X c #CBBAB2",
"XX c #E9ACA0",
"oX c #E5B4A5",
"OX c #ECB4A3",
"+X c #E4BBA4",
"@X c #EBBCAA",
"#X c #E8B9AA",
"$X c #F4BCAB",
"%X c #F0B5A5",
"&X c #EDBDB1",
"*X c #F1BDB0",
"=X c #EEC1AC",
"-X c #F2C4B0",
";X c #FDC1B3",
":X c #D9C8C0",
">X c #E4D3CC",
",X c #F0DBD8",
"<X c #FFF7F5",
/* pixels */
"                      f.>X:X.Xx.k & M <X                        ",
"                    + X * $ 4 * + * %  X                        ",
"                    X $ , < x ] 0 1 l l < n                     ",
"                5 # = m m c 9.J.9.X.w.L 2 1 o                   ",
"              o a m X.X.C.V.}.}.#XW.K.D.B.Z.c '                 ",
"              8 1.%.%.b.i.B.R.).(.XX`.D.W.T.z.t                 ",
"              v %./ &.&.D.S.(.(._.^.P.'.D.B.T. ..               ",
"            o X.W #.3.q.p.A.^.{./._.P.P.G.F.T.k.- j             ",
"            1 L Q ( ,.,.s.P.^._.[.[._._.S.F.B.M.u               ",
"          1 y [ Q ^ -.u.A.H.^._.[.].[.[.R.I.C.n.6               ",
"          @ 9 L / ` >.6.d.H.`.[.].+XOXOXE.C.n.V.a               ",
"          O.3 { H ` ;.>.S.G.I.OX+X+X].].].T.C.Q.F               ",
"            9 W #.$.q.m././.E.].|.+X=X-X#Xn.e.T.I               ",
"            9 { Z d S D _ N.@X|.Q.l.*.W D F @.R.Q               ",
"        y z v [ d w > ; r U M.Q.M. .S g ~ 2.b.F.3.'.            ",
"        { N c W Y A w : i i E ~.T.@.e ; f @.K.OX:.L.            ",
"          2 f @.T A A p 5.w f T.oXe.W D *.n.).XX3.              ",
"          - b ~ 7.6.<.6.N.T g K.@X).W.].@X+XoX$Xq.              ",
"          K t *.;.u.y.p.a.( J (.;XOX(.OX-X@X!.!.0.              ",
"          j.5 R ` <.u.u.,.^ ( (.OXOX_.%XOX!.Q.l.8.              ",
"            0 a =.>.p.p.-.^ ,._.OXOX[.$XOXT.T.8.                ",
"            x.x { >.:.a.G J ( I.$X/.R.OXOX).V.                  ",
"              o.m 2.=.e.Y S p _ t.U.OX;X$X*Xr.                  ",
"              v.q 1.9.w.$.Z > Z p 5.OX$X).&X{                   ",
"                7 m 1.~ s p s _ H ;.( q.!.k.'                   ",
"                V 5 R b e p Z Y / ^ #.g Y.B g.                  ",
"                  = z F F C / i.R.m.F.=.E n                     ",
"                  Y.O a W Q C G ) i.r.z.n c.                    ",
"                    | # K I +.h &.h.Y...4.                      ",
"                      M 5 R b P [ h...x <X                      ",
"                        V . @ < = , 0 ,X                        ",
"                          x.q # , B                             "
};
