/* XPM */
static char *_4772e0f99b84cd7d13f724b1a21c0cfumDAcGAyCxaCSGex[] = {
/* columns rows colors chars-per-pixel */
"24 24 14 1 ",
"  c #585858",
". c #624C0C",
"X c #6D5201",
"o c #674221",
"O c #6A4221",
"+ c #DA0205",
"@ c #C4181A",
"# c #FF0205",
"$ c #FF2405",
"% c #998300",
"& c #B68E00",
"* c #BC8E00",
"= c #C89900",
"- c #D7A402",
/* pixels */
"     oooooooooooooo     ",
"     O&&==------X%O     ",
"     O%%%======*X%O     ",
"     OXX%*====**X%O     ",
" OOOOOXX%**++=**X%OOOOO ",
" OXXXOXX%*@$#+**X%OXXXO ",
" OX  OXX%*@$$+**X%O  %O ",
" OXX OXX%**@+=**X%O %%O ",
"  OXXOXX%%**==**X%OXXO  ",
"   OOOXX%%%*==**X%OOO   ",
"     OXXXX%**=*X%%O     ",
"      OOXX%%***XOO      ",
"        OooooooO        ",
"         OX...O         ",
"         OXXX.o         ",
"         OXXXXo         ",
"         O%%%Xo         ",
"         O%%%Xo         ",
"         O*%%Xo         ",
"         O**%XO         ",
"        OOOOOOOO        ",
"       OX%**%%%%O       ",
"      OX%****%XX%O      ",
"     OOOOOOOOOOOOOO     "
};
