/* XPM */
static char *_1e11666761e4fe682378c23d65ac416GT7sYSR9Nx3juSym[] = {
/* columns rows colors chars-per-pixel */
"32 32 173 2 ",
"   c #585858",
".  c #4D3634",
"X  c #4F3535",
"o  c #513737",
"O  c #502A1F",
"+  c #F2BCB3",
"@  c #6A4834",
"#  c #1E0B07",
"$  c #2A100B",
"%  c #4C3028",
"&  c #280B05",
"*  c #533735",
"=  c #4A2A27",
"-  c #835A44",
";  c #A36157",
":  c #3D1E16",
">  c #EDB7AD",
",  c #9B6052",
"<  c #D48F88",
"1  c #FDCFC7",
"2  c #8B6046",
"3  c #5A3735",
"4  c #3F261D",
"5  c #331E18",
"6  c #170703",
"7  c #593C2B",
"8  c #2E1710",
"9  c #C79188",
"0  c #D1938A",
"q  c #EEACA6",
"w  c #E0AB9F",
"e  c #AA6C60",
"r  c #E4A699",
"t  c #FED3CB",
"y  c #503434",
"u  c #664341",
"i  c #724D37",
"p  c #503426",
"a  c #100403",
"s  c #23130D",
"d  c #77503F",
"f  c #7D4140",
"g  c #EAA49A",
"h  c #C7646F",
"j  c #633E2B",
"k  c #C28474",
"l  c #E2AFA4",
"z  c #EDB0A7",
"x  c #FBCBC3",
"c  c #F9C1BA",
"v  c #FFDEDB",
"b  c #4A3133",
"n  c #5C3D39",
"m  c #90504A",
"M  c #97514D",
"N  c #B46C69",
"B  c #4B2417",
"V  c #B57867",
"C  c #563528",
"Z  c #D6968D",
"A  c #C38980",
"S  c #5F3728",
"D  c #C57B71",
"F  c #91615C",
"G  c #E89D97",
"H  c #C0766D",
"J  c #DDA399",
"K  c #B3726B",
"L  c #7B4638",
"P  c #E6ABA0",
"I  c #B97E6F",
"U  c #D79B90",
"Y  c #B9796E",
"T  c #CD8C7C",
"R  c #F8C8BD",
"E  c #D1847E",
"W  c #F6B9B1",
"Q  c #F3C1B8",
"!  c #966053",
"~  c #F6B4AF",
"^  c #643A3A",
"/  c #282332",
"(  c #5F4040",
")  c #90654A",
"_  c #281A21",
"`  c #3F1B13",
"'  c #854842",
"]  c #3D2224",
"[  c #64483B",
"{  c #140D11",
"}  c #CB988B",
"|  c #D29E92",
" . c #3E2B22",
".. c #A15452",
"X. c #986C5A",
"o. c #8D5446",
"O. c #5B2C1D",
"+. c #704436",
"@. c #391409",
"#. c #8C4B43",
"$. c #311209",
"%. c #4F2116",
"&. c #663828",
"*. c #BC8376",
"=. c #D7A294",
"-. c #D09A8B",
";. c #FFD5CD",
":. c #9F6A61",
">. c #AB7269",
",. c #5D2519",
"<. c #7E5546",
"1. c #EBB2A4",
"2. c #B37060",
"3. c #AB776B",
"4. c #E08C8A",
"5. c #FFD9D6",
"6. c #CB7B77",
"7. c #543A35",
"8. c #422C31",
"9. c #82463F",
"0. c #6A3331",
"q. c #A84047",
"w. c #94674B",
"e. c #865754",
"r. c #7C5354",
"t. c #6D3B2A",
"y. c #624331",
"u. c #953E3E",
"i. c #C06D66",
"p. c #7F533C",
"a. c #7D3B3D",
"s. c #975755",
"d. c #A1484F",
"f. c #C0887B",
"g. c #723C36",
"h. c #643025",
"j. c #935846",
"k. c #924A4A",
"l. c #C87076",
"z. c #784131",
"x. c #C17E71",
"c. c #692423",
"v. c #DC9D8C",
"b. c #6C412C",
"n. c #B28379",
"m. c #BC706E",
"M. c #A27265",
"N. c #98594A",
"B. c #DDA59B",
"V. c #74473B",
"C. c #D37D83",
"Z. c #E6B4AB",
"A. c #FEC8C6",
"S. c #B46666",
"D. c #845A4E",
"F. c #906963",
"G. c #FDC4BF",
"H. c #5E2D2F",
"J. c #865F50",
"K. c #694A4D",
"L. c #A06467",
"P. c #3D3C48",
"I. c #C1525A",
"U. c #C6867F",
"Y. c #C98575",
"T. c #161A26",
"R. c #D99192",
"E. c #B35A5F",
"W. c #FABDBA",
"Q. c #D7727F",
"!. c #966452",
"~. c #71362B",
"^. c #733622",
/* pixels */
"                    X X o 7.7.* o                               ",
"                X o n [ d - - @ p * * o o                       ",
"                u J.) 2 2 2 ) i % O 4 4 %                       ",
"              u - 2 ) w.w.2 i d C s a a 8 = * o o               ",
"            n - p.j @ i @ d 7 7 7 p s a # 8 = y o               ",
"          X i i @ @ y.%  .@ @ 7 p p C 4 # 6 $ = o               ",
"          3 j 5  .[ [ 7.p - X.2 S 8 s : 4 s # ` y               ",
"        * S 5 s 5  .. p @ 2 @ 4 # a a 6 # : $ $ = o             ",
"        n % { 8 5 4 7.% 7 y.8 6 $ B t.&.B $ $ # ] o             ",
"        O $ 6 % <.j b.j - b.B O.! A 0 Y.j.O & 6 5               ",
"        O : C D.>.2.j., V V 2.k r > z g H O.$ $ % o             ",
"      o ] 8 <.3.T z r v.r r 1.+ R c ~ G D t.$.# 5               ",
"      o = # d -.> R 1 t t 1 t ;.1 c W g < , O 6 8 X             ",
"        = & D.w + + Q x t t 1 x + J U 0 < x.o.$ : X             ",
"        % $.F.=.I e ! ! k r 1.T N.h.&.L L ; e : # % *           ",
"      3 f : M.*., ! V.,.^.9 1 Y ,.%.3 S ~.#.N S $ c.H.          ",
"      ^ u.O n.U 2.F F.:.I P x E e >.3.F , x.D L O d.0.          ",
"    X u l.' 9 + Q > B.l + ~ G.4.E l w Z.+ q E m ,.q.f .         ",
"    X u I.u.Z W 1 v v v c ~ A.4.6.Q 5.t W.G H m M q.k..         ",
"    X ( h 4.Z q A.5.v v W g ~ 6.S.q G.c q E ; 9.N h a..         ",
"        L.G U.U c x ;.5.z ..k.c.a.G W q 0 N M f N ..3           ",
"      X u 9 0 9 J + t 1 z H #.g.s.< > r K ; M ' s.^             ",
"        X ( e.A } > + B.< < < C.m.K A Z Y , m ^ X               ",
"          X * >.| l =.e S.l.h h d.f Y T V ; m ^                 ",
"            X F | } -.J R.C.Q.h E.D v.I V ; 9.3                 ",
"            X r.f.| } > 1.< K Y k Z T k I ' h.3                 ",
"            X e.:.n.=.l Q x R R + w U k o.%.0.n                 ",
"            y F *.+.X.9 w Z.w l -.f.M.L ` B #.y                 ",
"            X F P 3.+.j <.X.!.p.+.&.` @.O N..._ 8.              ",
"            8.r.q P *.V.: @.$.& & @.%.z.; i.M { _               ",
"          y / K.g z w 9 :.d C O O.z.o.e H i.f { / X             ",
"          b / ( g > P =.0 0 A Y ; , e D 6.m.] T.P._ b           "
};
