/* XPM */
static char *_c12fcd5d8164fedf54b6cec537cb0a2o5QL0fPx3cOhzQiU[] = {
/* columns rows colors chars-per-pixel */
"16 32 5 1 ",
"  c #585858",
". c #585858",
"X c #012E00",
"o c #0F6D01",
"O c #138D01",
/* pixels */
"      XXX       ",
"     XoooX      ",
"    XoooooX     ",
"   XoOOooooX    ",
"   XoOoooOooX   ",
"  XooooooooooX  ",
"  XooooooooooX  ",
"   XXXoooooXX   ",
"   XXoooooXXX   ",
"  XoooooooooX   ",
" XooooOoOooOoX  ",
"XXooOOOoooooOoX ",
"XXoooooooooooXX ",
"XXooOooooooXXXX ",
" XXooooooooooXX ",
"  XXXXoOoooooXX ",
"  XXXoooooooXX  ",
" XXOOooooOOoXX  ",
"XXoOoooooooooXX ",
"XXooooooOOooooX ",
"XXXoooXXooooooX ",
" XXXXXXXXoooXXX ",
"  XXXXXXXXoXXX  ",
"   XX.X.XXXXX   ",
"     ......     ",
"      ....      ",
"      ....      ",
"      ....      ",
"      ....      ",
"      .....     ",
"     ......     ",
"    ........    "
};
